<svg width="790" height="790" viewBox="0 0 790 790" fill="none" xmlns="http://www.w3.org/2000/svg">
<mask id="mask0_157_16" style="mask-type:luminance" maskUnits="userSpaceOnUse" x="0" y="0" width="790" height="790">
<path d="M790 0H0V790H790V0Z" fill="white"/>
</mask>
<g mask="url(#mask0_157_16)">
<path d="M513.54 629.009C519.017 628.961 526.644 627.954 531.728 629.719C532.465 630.822 532.582 631.939 532.761 633.228C534.821 648.201 533.636 664.711 533.726 679.849C533.774 688.508 534.807 698.531 533.622 707.017C533.347 709.009 533.044 709.464 531.859 711.022C527.264 711.119 522.048 711.629 517.529 710.85C515.614 710.526 514.773 710.381 513.685 708.809C512.741 702.419 513.209 695.725 513.258 689.273C513.354 677.457 513.595 665.621 513.561 653.805C513.547 647.429 511.942 641.19 512.025 634.827C512.052 632.525 512.376 630.981 513.54 629.009Z" fill="#FDF9F9"/>
<path d="M153.356 628.52C163.458 628.402 202.563 627.499 209.103 630.091C209.391 630.843 209.559 631.477 209.423 632.29C205.948 653.192 196.593 640.328 188.766 645.836C185.703 650.455 187.244 690.217 187.293 697.662C187.342 701.578 188.075 706.583 186.618 710.229C186.062 710.588 185.594 710.898 184.946 711.084C180.791 712.27 172.468 712.449 168.584 710.395C163.639 707.775 169.276 655.501 166.324 645.926C162.003 641.845 155.53 645.981 150.446 644.396C149.379 644.065 148.407 643.555 147.894 642.534C147.033 640.825 147.608 638.881 148.11 637.15C149.174 633.483 149.796 630.45 153.356 628.52Z" fill="#FDF9F9"/>
<path d="M347.776 628.554C353.227 628.03 358.608 627.879 363.979 629.078C370.478 630.533 379.588 635.158 382.778 641.362C383.225 642.231 383.471 643.21 383.037 644.113C381.333 647.663 369.734 650.841 366.023 652.123C364.134 650.103 362.029 647.422 359.507 646.229C356.498 644.809 352.025 644.451 348.929 645.809C347.073 646.622 346.676 647.339 345.865 649.131C346.613 657.969 370.852 662.863 377.958 669.081C382.792 673.314 385.584 679.725 385.911 686.109C386.23 692.361 383.922 698.138 379.67 702.667C372.523 710.284 363.979 712.084 353.968 712.477C348.622 712.359 342.737 711.456 337.847 709.216C332.703 706.851 322.362 698.048 320.947 692.382C320.717 691.465 320.711 690.583 321.294 689.81C323.363 687.074 328.949 684.296 332.253 684.109C337.635 683.806 340.813 687.811 344.574 690.955C347.811 693.664 351.257 695.374 355.573 694.815C358.515 694.436 361.713 693.009 363.45 690.507C364.422 689.107 364.472 687.239 364.028 685.64C362.017 678.408 344.595 674.445 338.384 670.646C332.925 667.303 328.024 662.588 326.61 656.101C325.392 650.524 326.724 643.575 329.853 638.832C334.094 632.401 340.589 630.002 347.776 628.554Z" fill="#FDF9F9"/>
<path d="M417.4 629.14C421.664 628.547 430.965 627.575 434.602 629.926C438.199 632.256 435.36 652.351 437.09 657.7C437.558 659.169 437.744 659.362 439.025 660.051C447.265 656.825 453.7 632.435 464.564 628.857C467.954 627.748 475.869 628.396 479.032 629.933C481.05 636.323 458.412 657.817 456.318 666.765C454.981 672.473 467.223 687.811 470.441 692.692C472.948 696.511 475.484 700.323 477.84 704.239C479.032 706.203 480.94 708.995 480.361 711.346C478.915 712.015 477.688 711.987 476.131 712.035C459.39 712.532 457.144 707.1 450.062 693.526C448.712 690.934 447.575 688.232 445.432 686.191C443.593 685.578 442.89 685.564 441.092 686.405C434.162 689.645 439.384 702.302 436.931 708.078C436.208 709.795 434.72 710.905 432.97 711.436C429.56 712.477 422.498 712.394 419.294 710.808C415.133 704.956 418.282 657.714 417.262 646.553C417.014 643.83 415.54 641.569 414.975 638.95C414.251 635.572 415.636 631.96 417.4 629.14Z" fill="#FDF9F9"/>
<path d="M260.224 628.602C264.764 628.602 271.643 627.879 275.766 629.774C278.25 630.919 279.633 634.752 280.622 637.144C285.728 649.497 289.249 662.795 293.39 675.506C296.679 685.599 300.813 695.767 303.546 705.997C304.016 707.761 303.958 708.63 303.274 710.291C299.986 712.228 294.169 713.221 290.469 712.346C284.135 710.836 283.145 704.432 279.956 699.779C278.527 697.69 276.991 697.58 274.702 697.249C268.961 697.325 257.001 695.636 252.772 699.875C251.551 701.095 251.432 702.24 251.467 703.867C251.509 705.838 251.698 707.885 250.286 709.423C248.829 711.008 246.001 711.415 243.97 711.58C240.823 711.842 232.713 712.656 230.261 710.608C230.018 708.788 230.383 707.286 230.833 705.535C232.502 699.055 235.156 692.782 237.089 686.357C240.164 676.141 249.906 636.247 254.33 630.215C256.233 628.802 257.912 628.789 260.224 628.602ZM266.473 655.418C264.761 659.444 259.18 676.678 260.195 680.359C260.395 681.09 260.506 680.952 261.282 681.29C262.918 681.993 264.849 681.842 266.597 681.848C268.549 681.518 270.729 681.442 272.15 679.932C272.336 674.017 270.31 661.333 267.464 656.149L266.473 655.418Z" fill="#FDF9F9"/>
<path d="M266.473 655.418L267.464 656.149C270.31 661.333 272.336 674.017 272.15 679.932C270.729 681.442 268.549 681.518 266.597 681.848C264.848 681.842 262.918 681.993 261.282 681.29C260.506 680.952 260.395 681.09 260.195 680.359C259.18 676.678 264.761 659.444 266.473 655.418Z" fill="#F9F8F6" fill-opacity="0.0117647"/>
<path d="M563.446 629.106C568.682 628.547 576.267 627.796 581.31 629.237C585.141 630.326 595.888 653.578 598.389 658.321C599.884 661.161 602.261 666.813 605.547 667.834C609.336 663.794 605.161 638.977 607.848 631.043C608.819 629.967 609.646 629.457 611.058 629.216C614.744 628.575 622.805 628.113 626.056 630.16C627.786 635.93 628.261 705.011 626.497 711.022C620.38 711.705 613.828 711.332 607.731 710.691C598.127 700.144 592.478 681.883 583.77 669.743C582.95 677.478 585.292 706.638 581.951 710.877C578.72 711.98 569.812 712.256 566.595 711.063C565.706 710.732 564.624 710.181 564.294 709.257C562.413 704.011 563.57 690.893 563.543 685.026C563.495 675.148 563.86 665.097 563.398 655.232C563.109 649.166 561.758 643.003 561.793 636.95C561.807 634.186 562.186 631.601 563.446 629.106Z" fill="#FDF9F9"/>
<path d="M497.213 248.035C503.137 249.934 550.894 279.239 554.47 283.242C555.531 289.87 554.676 297.167 554.642 303.893L554.635 342.888C554.683 355.826 554.621 368.789 554.945 381.723C555.193 392.009 556.915 404.212 554.993 414.306C554.683 415.916 554.532 417.167 553.154 418.126C548.965 414.827 539.754 391.219 535.627 384.617C516.213 355.916 480.458 355.193 452.756 340.791C449.532 339.113 445.033 336.512 444.041 332.783C443.793 331.824 443.724 330.303 444.247 329.405C445.494 327.268 454.857 323.035 457.62 321.05C462.511 317.537 466.555 313.227 470.262 308.51C479.624 296.593 489.6 282.054 493.086 267.1C494.484 261.076 494.05 253.418 497.213 248.035Z" fill="#F27727"/>
<path d="M323.441 224.3C324.291 224.491 325.192 224.728 325.86 225.328C328.96 228.113 331.475 233.758 334.307 237.204C337.34 240.894 341.005 243.832 344.251 247.323C345.513 257.462 347.622 268.168 348.215 278.306C349.049 292.57 346.071 310.209 340.195 323.348C334.055 337.076 326.591 341.18 313.046 346.139C305.839 348.725 298.649 351.361 291.477 354.045C262.16 365.33 246.929 371.303 233.532 401.308C231.883 404.945 229.201 414.928 225.712 416.56C225.229 416.02 225.121 415.973 224.801 415.197C223.781 412.72 224.29 301.537 224.67 290.606C224.729 288.901 224.803 286.461 225.579 284.939C229.55 277.153 311.197 229.163 323.441 224.3Z" fill="#F27727"/>
<path d="M428.464 110.869C435.533 110.673 442.608 110.67 449.607 111.79C462.242 113.812 472.914 117.998 480.527 128.715C483.482 132.869 485.632 137.578 487.258 142.394C490.055 150.709 496.331 179.185 494.994 187.184C491.77 189.145 475.353 184.38 470.716 183.685C455.374 181.384 438.337 180.685 422.925 182.681C433.741 185.712 446.307 185.777 457.475 186.974C475.408 188.896 510.805 194.899 525.314 205.754C527.381 207.3 527.96 208.344 528.394 210.81C524.46 219.375 499.617 213.459 491.184 217.147C489.875 218.348 489.4 219.231 489.138 221.007C488.518 225.236 488.828 229.812 488.732 234.102C488.484 244.818 488.077 256.1 485.535 266.544C481.622 282.601 467.196 305.671 453.803 315.759C449.387 319.084 443.745 320.269 439.211 323.261C437.386 324.466 435.719 326.116 435.319 328.362C434.162 334.981 441.154 342.537 446.404 345.677C452.108 349.084 458.667 351.039 464.881 353.27C484.708 360.386 515.442 368.639 527.856 386.363C534.077 395.249 538.087 406 542.971 415.675C546.802 423.254 552.43 430.776 554.587 439.008C556.571 446.588 556.412 458.591 554.924 466.292C553.918 471.481 550.722 475.449 546.375 478.281C537.253 484.224 526.926 488.972 517.481 494.499C503.964 502.411 487.898 513.088 474.133 519.724C472.583 520.469 472.06 520.679 470.399 520.332C470.303 520.082 470.193 519.836 470.096 519.584C468.959 516.481 468.718 467.75 469.449 461.521C469.883 457.805 470.909 454.196 472.728 450.914C477.929 441.519 487.616 435.963 492.555 425.928C496.517 417.871 496.572 407.654 493.658 399.271C491.612 393.37 485.645 382.135 479.652 379.588C478.308 379.02 477.929 379.279 476.641 379.733C472.253 385.491 475.739 402.055 475.311 409.296C475.015 414.423 473.458 418.998 469.373 422.364C464.826 426.106 458.77 427.758 452.956 427.136C425.171 424.163 441.623 388.609 434.919 381.414C434.127 380.563 433.645 380.81 432.549 380.74C429.746 381.855 427.52 383.732 425.385 385.82C418.027 393.018 416.243 401.043 416.222 411.091C416.187 429.915 423.642 434.616 435.684 447.072C438.619 450.108 441.216 454.162 442.16 458.315C444.103 466.837 442.828 477.922 442.842 486.735C442.966 503.738 442.991 520.74 442.918 537.742C432.06 545.676 401.548 562.219 389.034 567.02C385.372 565.796 381.963 563.99 378.513 562.273C372.035 558.513 363.562 554.69 358.032 549.647C353.601 545.606 354.795 533.681 354.818 528.005C354.89 510.628 356.446 490.272 354.709 473.175C353.672 462.975 349.56 457.528 349.337 444.831C349.226 438.515 348.246 428.401 353.095 423.687C355.913 420.947 360.367 418.984 364.338 419.221C368.048 419.442 369.393 421.53 371.745 424.011C375.182 427.639 379.711 429.44 384.678 429.47C388.118 429.491 391.841 428.76 394.273 426.129C395.506 424.799 396.25 423.079 396.594 421.314C397.338 417.496 397.428 398.057 397.118 393.778C396.787 389.27 395.354 384.748 391.689 381.843C388.715 379.488 384.826 378.65 381.105 379.168C374.683 380.062 371.523 383.214 367.743 388.183C363.262 389.319 359.12 389.52 354.523 389.371C350.575 385.76 347.193 383.002 342.204 380.98C326.759 374.719 303.391 377.339 288.327 383.856C277.947 388.345 267.858 398.4 263.865 409.077C262.864 411.754 262.252 415.05 263.462 417.726C267.783 419.188 275.961 409.193 279.904 406.913C284.949 403.994 290.504 402.778 296.303 402.794C303.926 402.816 312.129 404.835 317.585 410.435C326.032 419.107 325.477 431.032 325.543 442.269C325.572 447.214 325.892 452.582 325.064 457.467C324.05 463.447 321.162 468.047 320.976 474.388C320.649 485.556 320.855 496.824 321.014 507.999C321.085 513.043 321.571 518.484 321.185 523.493C321.039 525.375 320.812 526.122 319.395 527.343C316.854 526.805 314.702 525.678 312.441 524.438C295.905 515.368 280.078 504.78 263.921 495.037C253.391 488.688 241.177 483.195 231.708 475.408C226.619 471.222 225.015 466.725 224.453 460.319C222.618 439.402 227.397 433.618 235.314 415.444C239.804 405.139 244.154 393.744 251.167 384.857C262.49 370.51 295.332 360.377 312.834 353.875C320.932 350.867 329.624 348.061 336.263 342.316C351.487 329.144 351.176 303.534 356.294 298.077C364.302 289.537 390.153 316.483 403.442 315.342L404.014 314.341C402.044 310.942 385.75 303.15 381.183 299.981C374.782 295.537 368.203 290.561 363.312 284.456C350.523 268.491 355.499 249.633 349.543 241.145C347.443 238.152 342.973 236.019 340.103 233.662C334.001 228.653 330.562 217.589 329.885 209.863C328.408 193.022 339.54 195.126 344.83 185.846C350.064 176.665 341.188 154.792 358.673 134.662C374.288 116.683 405.929 112.556 428.464 110.869Z" fill="#FDF9F9"/>
</g>
</svg>
