<?xml version="1.0" encoding="utf-8" ?>
<svg xmlns="http://www.w3.org/2000/svg" xmlns:xlink="http://www.w3.org/1999/xlink" width="1240" height="1240">
	<clipPath id="cl_3">
		<rect y="-4.5776367e-05" width="1240.0001" height="1240"/>
	</clipPath>
	<g clip-path="url(#cl_3)">
		<path fill="#262624" transform="matrix(1.08136 0 0 1.08203 -466.622 -157.558)" d="M1176.93 1058.07C1184.88 1058 1195.95 1056.54 1203.33 1059.1C1204.4 1060.7 1204.57 1062.32 1204.83 1064.19C1207.82 1085.91 1206.1 1109.86 1206.23 1131.82C1206.3 1144.38 1207.8 1158.92 1206.08 1171.23C1205.68 1174.12 1205.24 1174.78 1203.52 1177.04C1196.85 1177.18 1189.28 1177.92 1182.72 1176.79C1179.94 1176.32 1178.72 1176.11 1177.14 1173.83C1175.77 1164.56 1176.45 1154.85 1176.52 1145.49C1176.66 1128.35 1177.01 1111.18 1176.96 1094.04C1176.94 1084.79 1174.61 1075.74 1174.73 1066.51C1174.77 1063.17 1175.24 1060.93 1176.93 1058.07Z"/>
		<path fill="#262624" transform="matrix(1.08136 0 0 1.08203 -466.622 -157.558)" d="M654.114 1057.36C668.777 1057.19 725.539 1055.88 735.032 1059.64C735.45 1060.73 735.694 1061.65 735.496 1062.83C730.452 1093.15 716.874 1074.49 705.513 1082.48C701.067 1089.18 703.303 1146.86 703.374 1157.66C703.445 1163.34 704.51 1170.6 702.394 1175.89C701.587 1176.41 700.908 1176.86 699.968 1177.13C693.937 1178.85 681.855 1179.11 676.218 1176.13C669.04 1172.33 677.222 1096.5 672.938 1082.61C666.665 1076.69 657.269 1082.69 649.89 1080.39C648.341 1079.91 646.93 1079.17 646.186 1077.69C644.936 1075.21 645.77 1072.39 646.499 1069.88C648.043 1064.56 648.946 1060.16 654.114 1057.36Z"/>
		<path fill="#262624" transform="matrix(1.08136 0 0 1.08203 -466.622 -157.558)" d="M936.319 1057.41C944.232 1056.65 952.042 1056.43 959.839 1058.17C969.272 1060.28 982.496 1066.99 987.126 1075.99C987.775 1077.25 988.131 1078.67 987.502 1079.98C985.028 1085.13 968.192 1089.74 962.805 1091.6C960.063 1088.67 957.008 1084.78 953.347 1083.05C948.979 1080.99 942.487 1080.47 937.993 1082.44C935.299 1083.62 934.723 1084.66 933.545 1087.26C934.631 1100.08 969.815 1107.18 980.13 1116.2C987.146 1122.34 991.199 1131.64 991.673 1140.9C992.137 1149.97 988.786 1158.35 982.614 1164.92C972.24 1175.97 959.838 1178.58 945.307 1179.15C937.547 1178.98 929.005 1177.67 921.907 1174.42C914.44 1170.99 899.43 1158.22 897.377 1150C897.043 1148.67 897.034 1147.39 897.88 1146.27C900.884 1142.3 908.992 1138.27 913.788 1138C921.6 1137.56 926.213 1143.37 931.671 1147.93C936.37 1151.86 941.372 1154.34 947.637 1153.53C951.907 1152.98 956.549 1150.91 959.071 1147.28C960.481 1145.25 960.554 1142.54 959.909 1140.22C956.991 1129.73 931.702 1123.98 922.687 1118.47C914.763 1113.62 907.649 1106.78 905.596 1097.37C903.828 1089.28 905.762 1079.2 910.304 1072.32C916.46 1062.99 925.888 1059.51 936.319 1057.41Z"/>
		<path fill="#262624" transform="matrix(1.08136 0 0 1.08203 -466.622 -157.558)" d="M1037.38 1058.26C1043.57 1057.4 1057.07 1055.99 1062.35 1059.4C1067.57 1062.78 1063.45 1091.93 1065.96 1099.69C1066.64 1101.82 1066.91 1102.1 1068.77 1103.1C1080.73 1098.42 1090.07 1063.04 1105.84 1057.85C1110.76 1056.24 1122.25 1057.18 1126.84 1059.41C1129.77 1068.68 1096.91 1099.86 1093.87 1112.84C1091.93 1121.12 1109.7 1143.37 1114.37 1150.45C1118.01 1155.99 1121.69 1161.52 1125.11 1167.2C1126.84 1170.05 1129.61 1174.1 1128.77 1177.51C1126.67 1178.48 1124.89 1178.44 1122.63 1178.51C1098.33 1179.23 1095.07 1171.35 1084.79 1151.66C1082.83 1147.9 1081.18 1143.98 1078.07 1141.02C1075.4 1140.13 1074.38 1140.11 1071.77 1141.33C1061.71 1146.03 1069.29 1164.39 1065.73 1172.77C1064.68 1175.26 1062.52 1176.87 1059.98 1177.64C1055.03 1179.15 1044.78 1179.03 1040.13 1176.73C1034.09 1168.24 1038.66 1099.71 1037.18 1083.52C1036.82 1079.57 1034.68 1076.29 1033.86 1072.49C1032.81 1067.59 1034.82 1062.35 1037.38 1058.26Z"/>
		<path fill="#262624" transform="matrix(1.08136 0 0 1.08203 -466.622 -157.558)" d="M809.235 1057.48C815.826 1057.48 825.811 1056.43 831.795 1059.18C835.401 1060.84 837.408 1066.4 838.843 1069.87C846.255 1087.79 851.366 1107.08 857.377 1125.52C862.151 1140.16 868.152 1154.91 872.118 1169.75C872.8 1172.31 872.716 1173.57 871.723 1175.98C866.951 1178.79 858.508 1180.23 853.137 1178.96C843.943 1176.77 842.506 1167.48 837.877 1160.73C835.803 1157.7 833.573 1157.54 830.25 1157.06C821.917 1157.17 804.557 1154.72 798.419 1160.87C796.646 1162.64 796.474 1164.3 796.524 1166.66C796.585 1169.52 796.86 1172.49 794.81 1174.72C792.696 1177.02 788.59 1177.61 785.643 1177.85C781.075 1178.23 769.303 1179.41 765.743 1176.44C765.39 1173.8 765.92 1171.62 766.574 1169.08C768.996 1159.68 772.849 1150.58 775.655 1141.26C780.118 1126.44 794.259 1068.57 800.68 1059.82C803.442 1057.77 805.88 1057.75 809.235 1057.48ZM818.306 1096.38C815.821 1102.22 807.72 1127.22 809.193 1132.56C809.483 1133.62 809.645 1133.42 810.771 1133.91C813.146 1134.93 815.948 1134.71 818.486 1134.72C821.319 1134.24 824.483 1134.13 826.546 1131.94C826.816 1123.36 823.875 1104.96 819.745 1097.44L818.306 1096.38Z"/>
		<path fill="#F9F8F6" fill-opacity="0.011764706" transform="matrix(1.08136 0 0 1.08203 -466.622 -157.558)" d="M818.306 1096.38L819.745 1097.44C823.875 1104.96 826.816 1123.36 826.546 1131.94C824.483 1134.13 821.319 1134.24 818.486 1134.72C815.948 1134.71 813.146 1134.93 810.771 1133.91C809.645 1133.42 809.483 1133.62 809.193 1132.56C807.72 1127.22 815.821 1102.22 818.306 1096.38Z"/>
		<path fill="#262624" transform="matrix(1.08136 0 0 1.08203 -466.622 -157.558)" d="M1249.37 1058.21C1256.97 1057.4 1267.98 1056.31 1275.3 1058.4C1280.86 1059.98 1296.46 1093.71 1300.09 1100.59C1302.26 1104.71 1305.71 1112.91 1310.48 1114.39C1315.98 1108.53 1309.92 1072.53 1313.82 1061.02C1315.23 1059.46 1316.43 1058.72 1318.48 1058.37C1323.83 1057.44 1335.53 1056.77 1340.25 1059.74C1342.76 1068.11 1343.45 1168.32 1340.89 1177.04C1332.01 1178.03 1322.5 1177.49 1313.65 1176.56C1299.71 1161.26 1291.51 1134.77 1278.87 1117.16C1277.68 1128.38 1281.08 1170.68 1276.23 1176.83C1271.54 1178.43 1258.61 1178.83 1253.94 1177.1C1252.65 1176.62 1251.08 1175.82 1250.6 1174.48C1247.87 1166.87 1249.55 1147.84 1249.51 1139.33C1249.44 1125 1249.97 1110.42 1249.3 1096.11C1248.88 1087.31 1246.92 1078.37 1246.97 1069.59C1246.99 1065.58 1247.54 1061.83 1249.37 1058.21Z"/>
		<path fill="#F27727" transform="matrix(1.08136 0 0 1.08203 -466.622 -157.558)" d="M1153.23 505.419C1161.83 508.174 1231.15 550.684 1236.34 556.492C1237.88 566.106 1236.64 576.692 1236.59 586.449L1236.58 643.015C1236.65 661.783 1236.56 680.588 1237.03 699.35C1237.39 714.272 1239.89 731.973 1237.1 746.616C1236.65 748.952 1236.43 750.767 1234.43 752.158C1228.35 747.372 1214.98 713.125 1208.99 703.548C1180.81 661.914 1128.91 660.865 1088.7 639.974C1084.02 637.54 1077.49 633.766 1076.05 628.357C1075.69 626.965 1075.59 624.759 1076.35 623.456C1078.16 620.356 1091.75 614.216 1095.76 611.337C1102.86 606.24 1108.73 599.989 1114.11 593.146C1127.7 575.859 1142.18 554.768 1147.24 533.076C1149.27 524.337 1148.64 513.228 1153.23 505.419Z"/>
		<path fill="#F27727" transform="matrix(1.08136 0 0 1.08203 -466.622 -157.558)" d="M900.996 470.989C902.23 471.266 903.538 471.609 904.507 472.48C909.008 476.52 912.658 484.709 916.769 489.708C921.171 495.061 926.491 499.322 931.203 504.387C933.035 519.094 936.096 534.624 936.956 549.331C938.167 570.023 933.845 595.61 925.315 614.67C916.403 634.584 905.569 640.538 885.908 647.731Q870.215 653.359 854.6 659.2C812.046 675.571 789.937 684.235 770.492 727.761C768.098 733.037 764.205 747.519 759.14 749.886C758.439 749.103 758.282 749.034 757.818 747.908C756.337 744.315 757.076 583.031 757.628 567.174C757.714 564.701 757.821 561.161 758.948 558.953C764.712 547.659 883.224 478.043 900.996 470.989Z"/>
		<path fill="#262624" transform="matrix(1.08136 0 0 1.08203 -466.622 -157.558)" d="M1053.44 306.443C1063.7 306.159 1073.97 306.154 1084.13 307.779C1102.47 310.712 1117.96 316.784 1129.01 332.33C1133.3 338.356 1136.42 345.188 1138.78 352.174C1142.84 364.235 1151.95 405.543 1150.01 417.147C1145.33 419.992 1121.5 413.079 1114.77 412.071C1092.5 408.734 1067.77 407.719 1045.4 410.615C1061.1 415.012 1079.34 415.106 1095.55 416.842C1121.58 419.63 1172.96 428.339 1194.02 444.086C1197.02 446.328 1197.86 447.843 1198.49 451.419C1192.78 463.844 1156.72 455.262 1144.48 460.612C1142.58 462.355 1141.89 463.636 1141.51 466.212C1140.61 472.347 1141.06 478.985 1140.92 485.208C1140.56 500.753 1139.97 517.118 1136.28 532.269C1130.6 555.561 1109.66 589.027 1090.22 603.661C1083.81 608.484 1075.62 610.204 1069.04 614.544C1066.39 616.292 1063.97 618.685 1063.39 621.943C1061.71 631.545 1071.86 642.506 1079.48 647.061C1087.76 652.003 1097.28 654.839 1106.3 658.076C1135.08 668.398 1179.69 680.371 1197.71 706.082C1206.74 718.971 1212.56 734.568 1219.65 748.602C1225.21 759.596 1233.38 770.508 1236.51 782.45C1239.39 793.445 1239.16 810.857 1237 822.029C1235.54 829.556 1230.9 835.312 1224.59 839.42C1211.35 848.041 1196.36 854.929 1182.65 862.946C1163.03 874.423 1139.71 889.912 1119.73 899.538C1117.48 900.619 1116.72 900.924 1114.31 900.42C1114.17 900.058 1114.01 899.701 1113.87 899.335C1112.22 894.834 1111.87 824.143 1112.93 815.107C1113.56 809.717 1115.05 804.482 1117.69 799.721C1125.24 786.092 1139.3 778.032 1146.47 763.476C1152.22 751.787 1152.3 736.967 1148.07 724.806C1145.1 716.246 1136.44 699.948 1127.74 696.254C1125.79 695.429 1125.24 695.805 1123.37 696.464C1117 704.816 1122.06 728.844 1121.44 739.349C1121.01 746.786 1118.75 753.422 1112.82 758.305C1106.22 763.733 1097.43 766.13 1088.99 765.228C1048.66 760.915 1072.54 709.339 1062.81 698.902C1061.66 697.668 1060.96 698.026 1059.37 697.924C1055.3 699.542 1052.07 702.264 1048.97 705.293C1038.29 715.735 1035.7 727.377 1035.67 741.952C1035.62 769.259 1046.44 776.078 1063.92 794.148C1068.18 798.551 1071.95 804.433 1073.32 810.457C1076.14 822.819 1074.29 838.899 1074.31 851.684Q1074.58 888.68 1074.42 925.676C1058.66 937.185 1014.37 961.182 996.206 968.147C990.89 966.371 985.943 963.751 980.935 961.261C971.532 955.806 959.233 950.261 951.206 942.945C944.775 937.084 946.507 919.784 946.541 911.551C946.646 886.343 948.904 856.815 946.382 832.013C944.877 817.216 938.909 809.315 938.585 790.897C938.424 781.734 937.002 767.063 944.04 760.224C948.13 756.25 954.595 753.402 960.359 753.746C965.744 754.067 967.697 757.095 971.111 760.695C976.099 765.957 982.674 768.57 989.884 768.614C994.876 768.644 1000.28 767.584 1003.81 763.767C1005.6 761.838 1006.68 759.342 1007.18 756.782C1008.26 751.243 1008.39 723.045 1007.94 716.838C1007.46 710.299 1005.38 703.739 1000.06 699.524C995.743 696.109 990.098 694.893 984.697 695.644C975.375 696.941 970.789 701.514 965.302 708.721C958.797 710.369 952.786 710.661 946.113 710.445C940.382 705.206 935.473 701.206 928.231 698.272C905.813 689.19 871.894 692.991 850.028 702.444C834.961 708.957 820.316 723.543 814.52 739.031C813.067 742.914 812.179 747.696 813.935 751.577C820.207 753.698 832.078 739.199 837.802 735.891C845.125 731.658 853.188 729.894 861.605 729.917C872.67 729.948 884.577 732.877 892.496 741.001C904.757 753.581 903.951 770.879 904.048 787.18C904.09 794.354 904.554 802.141 903.352 809.226C901.88 817.902 897.689 824.575 897.419 833.772C896.943 849.974 897.242 866.319 897.473 882.529C897.577 889.846 898.282 897.74 897.721 905.005C897.51 907.735 897.18 908.819 895.123 910.591C891.435 909.81 888.312 908.176 885.029 906.376C861.027 893.22 838.054 877.86 814.601 863.727C799.317 854.517 781.588 846.548 767.844 835.252C760.457 829.18 758.128 822.656 757.313 813.364C754.65 783.021 761.586 774.63 773.078 748.267C779.595 733.318 785.909 716.789 796.089 703.897C812.524 683.085 860.195 668.385 885.6 658.953C897.354 654.59 909.971 650.519 919.608 642.186C941.706 623.078 941.254 585.927 948.683 578.011C960.307 565.623 997.83 604.712 1017.12 603.056L1017.95 601.604C1015.09 596.673 991.44 585.371 984.811 580.773C975.519 574.327 965.969 567.108 958.87 558.253C940.306 535.093 947.529 507.737 938.884 495.424C935.836 491.083 929.348 487.989 925.182 484.57C916.325 477.303 911.333 461.254 910.35 450.046C908.206 425.616 924.364 428.668 932.043 415.206C939.64 401.888 926.756 370.159 952.136 340.957C974.802 314.877 1020.73 308.89 1053.44 306.443Z"/>
	</g>
</svg>
